<?xml version="1.0" encoding="UTF-8" standalone="no"?>
<!DOCTYPE svg PUBLIC "-//W3C//DTD SVG 1.1//EN"
 "http://www.w3.org/Graphics/SVG/1.1/DTD/svg11.dtd">
<!-- Generated by graphviz version 2.38.0 (20140413.2041)
 -->
<!-- Title: G Pages: 1 -->
<svg width="117pt" height="204pt"
 viewBox="0.00 0.00 117.00 204.00" xmlns="http://www.w3.org/2000/svg" xmlns:xlink="http://www.w3.org/1999/xlink">
<g id="graph0" class="graph" transform="scale(1 1) rotate(0) translate(4 200)">
<title>G</title>
<polygon fill="white" stroke="none" points="-4,4 -4,-200 113,-200 113,4 -4,4"/>
<g id="clust1" class="cluster"><title>cluster_Global</title>
<path fill="none" stroke="gray" d="M20,-8C20,-8 89,-8 89,-8 95,-8 101,-14 101,-20 101,-20 101,-176 101,-176 101,-182 95,-188 89,-188 89,-188 20,-188 20,-188 14,-188 8,-182 8,-176 8,-176 8,-20 8,-20 8,-14 14,-8 20,-8"/>
<text text-anchor="middle" x="54.5" y="-175.2" font-family="Times,serif" font-size="11.00" fill="gray">Global</text>
</g>
<!-- \\Validator -->
<g id="node1" class="node"><title>\\Validator</title>
<polygon fill="none" stroke="black" points="93,-160 16,-160 16,-124 93,-124 93,-160"/>
<text text-anchor="middle" x="54.5" y="-139.2" font-family="Courier,monospace" font-size="11.00">Validator</text>
</g>
<!-- \\User -->
<g id="node2" class="node"><title>\\User</title>
<polygon fill="none" stroke="black" points="81.5,-106 27.5,-106 27.5,-70 81.5,-70 81.5,-106"/>
<text text-anchor="middle" x="54.5" y="-85.2" font-family="Courier,monospace" font-size="11.00">User</text>
</g>
<!-- \\UserStore -->
<g id="node3" class="node"><title>\\UserStore</title>
<polygon fill="none" stroke="black" points="93,-52 16,-52 16,-16 93,-16 93,-52"/>
<text text-anchor="middle" x="54.5" y="-31.2" font-family="Courier,monospace" font-size="11.00">UserStore</text>
</g>
</g>
</svg>
